<svg width="210" height="80" viewBox="0 0 210 80" fill="none" xmlns="http://www.w3.org/2000/svg">
<path d="M38.1134 40.7358V63.3808H25.2113L19.6709 79.9093L19.6694 79.9138H0L0.0030556 79.905L13.61 40.7358H38.1134ZM78.756 79.905L78.7591 79.9138H59.1296L59.128 79.9095L52.9646 63.3808H40.6457V40.7358H65.0125L78.756 79.905ZM50.7348 0.044223L64.3101 38.7338H40.6457V0.0397949H50.7333L50.7348 0.044223ZM38.1134 38.7338H14.3055L27.7458 0.0442488L27.7474 0.0397949H38.1134V38.7338Z" fill="#E3DFDE"/>
<path d="M140.601 41.2197C142.83 45.0997 144.117 49.6763 144.117 54.5774C144.117 68.5959 133.589 79.9602 120.603 79.9602C119.36 79.9602 118.139 79.856 116.948 79.6553H113.848V41.2197H140.601ZM111.157 41.2197V79.6553H86.3241V41.2197H111.157ZM120.597 0.0929239C128.965 0.976702 135.486 8.05632 135.486 16.6589C135.486 22.4317 132.549 27.5187 128.089 30.5079C132.414 32.0748 136.178 34.9626 138.97 38.7272H113.848V0H120.597V0.0929239ZM111.157 38.7272H86.3241V0H111.157V38.7272Z" fill="#E3DFDE"/>
<path d="M205.845 41.2595C208.074 45.1395 209.36 49.7161 209.36 54.6172C209.36 68.6357 198.833 80 185.847 80C184.603 80 183.383 79.8958 182.191 79.6951H179.092V41.2595H205.845ZM176.4 41.2595V79.6951H151.568V41.2595H176.4ZM185.84 0.132719C194.209 1.0165 200.729 8.09612 200.729 16.6987C200.729 22.4715 197.793 27.5585 193.332 30.5476C197.658 32.1146 201.422 35.0024 204.213 38.767H179.092V0.0397949H185.84V0.132719ZM176.4 38.767H151.568V0.0397949H176.4V38.767Z" fill="#E3DFDE"/>
</svg>
