<svg width="5" height="4" viewBox="0 0 5 4" fill="none" xmlns="http://www.w3.org/2000/svg">
<path d="M0.230209 1.4651C0.103065 1.4651 -5.75563e-06 1.56817 -5.76675e-06 1.69531C-5.77786e-06 1.82246 0.103065 1.92553 0.230209 1.92553L0.230209 1.69531L0.230209 1.4651ZM4.45885 1.8581C4.54875 1.76819 4.54875 1.62243 4.45885 1.53253L2.99377 0.067446C2.90386 -0.0224586 2.7581 -0.0224586 2.66819 0.067446C2.57829 0.157351 2.57829 0.303115 2.66819 0.393019L3.97049 1.69531L2.66819 2.99761C2.57829 3.08751 2.57829 3.23327 2.66819 3.32318C2.7581 3.41308 2.90386 3.41308 2.99377 3.32318L4.45885 1.8581ZM0.230209 1.69531L0.230209 1.92553L4.29606 1.92553L4.29606 1.69531L4.29606 1.4651L0.230209 1.4651L0.230209 1.69531Z" fill="#DAA520"/>
</svg>
