<svg width="16" height="18" viewBox="0 0 16 18" fill="none" xmlns="http://www.w3.org/2000/svg">
<path d="M10.5383 0C10.9466 6.19277e-05 11.2777 0.331086 11.2777 0.739486V2.03378H12.3874L12.53 2.03768C13.9953 2.11192 15.1606 3.32325 15.1606 4.80705V14.6058C15.1606 16.0896 13.9953 17.3017 12.53 17.376L12.3874 17.3791H2.77327C1.24166 17.3791 4.49288e-05 16.1374 0 14.6058V4.80705C1.18546e-05 3.27542 1.24164 2.03379 2.77327 2.03378H3.88288V0.739486C3.88288 0.331047 4.21393 0 4.62237 0C5.03066 0.000174851 5.36185 0.331155 5.36185 0.739486V2.03378H9.79877V0.739486C9.79877 0.33113 10.1299 0.000133562 10.5383 0ZM1.47897 8.22707V14.6058C1.47902 15.3205 2.05854 15.9001 2.77327 15.9001H12.3874C13.1021 15.9001 13.6816 15.3205 13.6817 14.6058V8.22707H1.47897ZM2.77327 3.51275C2.05852 3.51276 1.47898 4.09229 1.47897 4.80705V6.7481H13.6817V4.80705C13.6816 4.09229 13.1021 3.51276 12.3874 3.51275H11.2777V5.08445C11.2777 5.49278 10.9466 5.82387 10.5383 5.82394C10.13 5.8238 9.79885 5.49274 9.79877 5.08445V3.51275H5.36185V5.08445C5.36177 5.49271 5.03061 5.82376 4.62237 5.82394C4.21398 5.82394 3.88297 5.49282 3.88288 5.08445V3.51275H2.77327Z" fill="#DAA520"/>
</svg>
