<svg width="16" height="16" viewBox="0 0 16 16" fill="none" xmlns="http://www.w3.org/2000/svg">
<path d="M12.4413 2.80167C12.4413 2.68642 12.3596 2.59011 12.2509 2.56792L12.2029 2.56327H2.90775C2.77608 2.56327 2.66934 2.67001 2.66934 2.80167V12.0968L2.674 12.1448C2.69619 12.2535 2.7925 12.3352 2.90775 12.3352H12.2029C12.3346 12.3352 12.4413 12.2285 12.4413 12.0968V2.80167ZM13.8718 12.0968C13.8718 13.0185 13.1246 13.7657 12.2029 13.7657H2.90775C2.0148 13.7657 1.28582 13.0644 1.24122 12.1825L1.23889 12.0968V2.80167C1.23889 1.87999 1.98607 1.13281 2.90775 1.13281H12.2029L12.2886 1.13514C13.1705 1.17974 13.8718 1.90873 13.8718 2.80167V12.0968Z" fill="#DAA520"/>
<path d="M12.4413 2.80167C12.4413 2.68642 12.3596 2.59011 12.2509 2.56792L12.2029 2.56327H2.90775C2.77608 2.56327 2.66934 2.67001 2.66934 2.80167V12.0968L2.674 12.1448C2.69619 12.2535 2.7925 12.3352 2.90775 12.3352H12.2029C12.3346 12.3352 12.4413 12.2285 12.4413 12.0968V2.80167ZM13.8718 12.0968C13.8718 13.0185 13.1246 13.7657 12.2029 13.7657H2.90775C2.0148 13.7657 1.28582 13.0644 1.24122 12.1825L1.23889 12.0968V2.80167C1.23889 1.87999 1.98607 1.13281 2.90775 1.13281H12.2029L12.2886 1.13514C13.1705 1.17974 13.8718 1.90873 13.8718 2.80167V12.0968Z" fill="#DAA520"/>
<path d="M12.4413 2.80167C12.4413 2.68642 12.3596 2.59011 12.2509 2.56792L12.2029 2.56327H2.90775C2.77608 2.56327 2.66934 2.67001 2.66934 2.80167V12.0968L2.674 12.1448C2.69619 12.2535 2.7925 12.3352 2.90775 12.3352H12.2029C12.3346 12.3352 12.4413 12.2285 12.4413 12.0968V2.80167ZM13.8718 12.0968C13.8718 13.0185 13.1246 13.7657 12.2029 13.7657H2.90775C2.0148 13.7657 1.28582 13.0644 1.24122 12.1825L1.23889 12.0968V2.80167C1.23889 1.87999 1.98607 1.13281 2.90775 1.13281H12.2029L12.2886 1.13514C13.1705 1.17974 13.8718 1.90873 13.8718 2.80167V12.0968Z" fill="#DAA520"/>
<path d="M5.87704 9.12783H9.23385V5.77102H5.87704V9.12783ZM10.1875 9.23773C10.1875 9.70372 9.80974 10.0815 9.34374 10.0815H5.76714C5.30116 10.0815 4.9234 9.70372 4.9234 9.23773V5.66113C4.92341 5.19514 5.30116 4.81739 5.76714 4.81738H9.34374C9.80973 4.81738 10.1875 5.19514 10.1875 5.66113V9.23773Z" fill="#DAA520"/>
<path d="M5.87704 9.12783H9.23385V5.77102H5.87704V9.12783ZM10.1875 9.23773C10.1875 9.70372 9.80974 10.0815 9.34374 10.0815H5.76714C5.30116 10.0815 4.9234 9.70372 4.9234 9.23773V5.66113C4.92341 5.19514 5.30116 4.81739 5.76714 4.81738H9.34374C9.80973 4.81738 10.1875 5.19514 10.1875 5.66113V9.23773Z" fill="#DAA520"/>
<path d="M5.87704 9.12783H9.23385V5.77102H5.87704V9.12783ZM10.1875 9.23773C10.1875 9.70372 9.80974 10.0815 9.34374 10.0815H5.76714C5.30116 10.0815 4.9234 9.70372 4.9234 9.23773V5.66113C4.92341 5.19514 5.30116 4.81739 5.76714 4.81738H9.34374C9.80973 4.81738 10.1875 5.19514 10.1875 5.66113V9.23773Z" fill="#DAA520"/>
<path d="M6.37885 1.50589H4.94839V0L6.37885 0V1.50589Z" fill="#DAA520"/>
<path d="M6.37885 15.1109H4.94839V13.605H6.37885V15.1109Z" fill="#DAA520"/>
<path d="M10.2085 1.50589H8.77804V0L10.2085 0V1.50589Z" fill="#DAA520"/>
<path d="M10.2085 15.1109H8.77804V13.605H10.2085V15.1109Z" fill="#DAA520"/>
<path d="M1.50589 8.59473L1.50589 10.0252L6.25271e-08 10.0252L0 8.59473L1.50589 8.59473Z" fill="#DAA520"/>
<path d="M15.1106 8.59473L15.1106 10.0252L13.6047 10.0252L13.6047 8.59473L15.1106 8.59473Z" fill="#DAA520"/>
<path d="M1.50589 4.76562L1.50589 6.19608L6.25271e-08 6.19608L0 4.76562L1.50589 4.76562Z" fill="#DAA520"/>
<path d="M15.1106 4.76562L15.1106 6.19608L13.6047 6.19608L13.6047 4.76562L15.1106 4.76562Z" fill="#DAA520"/>
</svg>
