<svg width="17" height="17" viewBox="0 0 17 17" fill="none" xmlns="http://www.w3.org/2000/svg">
<path d="M8.37824 0C13.0054 0 16.7565 3.75107 16.7565 8.37824C16.7565 13.0054 13.0054 16.7565 8.37824 16.7565C3.75107 16.7565 0 13.0054 0 8.37824C0 3.75107 3.75107 0 8.37824 0ZM8.37824 1.44142C4.54714 1.44142 1.44142 4.54714 1.44142 8.37824C1.44142 12.2093 4.54714 15.3151 8.37824 15.3151C12.2093 15.3151 15.3151 12.2093 15.3151 8.37824C15.3151 4.54714 12.2093 1.44142 8.37824 1.44142ZM8.46833 3.06301C8.86636 3.06301 9.18904 3.38568 9.18904 3.78372V8.13349L11.216 9.84429C11.5202 10.101 11.5588 10.5557 11.3021 10.8599C11.0454 11.1641 10.5906 11.2026 10.2865 10.9459L8.00346 9.01906C8.00104 9.01703 7.9988 9.01479 7.99642 9.01273C7.99042 9.00753 7.98447 9.00229 7.97865 8.99689C7.97471 8.99325 7.97087 8.98952 7.96703 8.98581C7.96325 8.98214 7.95948 8.97847 7.95577 8.97472C7.95376 8.97269 7.9516 8.9708 7.94961 8.96874L7.93483 8.95291C7.93377 8.95174 7.93272 8.95056 7.93167 8.94939C7.92617 8.94327 7.92091 8.937 7.91566 8.93074C7.91354 8.92821 7.9114 8.92572 7.90932 8.92317C7.90408 8.91674 7.899 8.91021 7.89401 8.90364C7.89201 8.901 7.88999 8.89838 7.88803 8.89572C7.87579 8.87913 7.86438 8.86209 7.85372 8.84469C7.85238 8.84252 7.85099 8.84038 7.84967 8.83818C7.84523 8.83075 7.84098 8.82322 7.83683 8.81566C7.83518 8.81267 7.83351 8.8097 7.8319 8.80669C7.8283 8.79991 7.82471 8.79315 7.82134 8.78628C7.81883 8.78117 7.81652 8.77596 7.81413 8.77079C7.8121 8.7664 7.81008 8.76202 7.80815 8.7576C7.80552 8.75161 7.80305 8.74555 7.80058 8.73947C7.79842 8.73415 7.79627 8.72883 7.79425 8.72346C7.78768 8.70611 7.78172 8.68846 7.77648 8.6705C7.77537 8.6667 7.77435 8.66288 7.77331 8.65906C7.77131 8.65178 7.76945 8.64444 7.76768 8.63707C7.76676 8.63325 7.76572 8.62946 7.76486 8.62563C7.7632 8.61817 7.76172 8.61065 7.76029 8.60311C7.75954 8.59919 7.75886 8.59525 7.75818 8.59132C7.75288 8.5605 7.7494 8.52903 7.74815 8.49701C7.74796 8.49244 7.74807 8.48786 7.74797 8.48328C7.74787 8.47831 7.74762 8.47333 7.74762 8.46833V3.78372C7.74762 3.38568 8.07029 3.06301 8.46833 3.06301Z" fill="#DAA520"/>
</svg>
