<svg width="15" height="14" viewBox="0 0 15 14" fill="none" xmlns="http://www.w3.org/2000/svg">
<path d="M13.2202 3.97989C13.2202 2.2184 11.9086 0.869288 10.3741 0.82755L10.3008 0.826512C9.22857 0.826513 8.26699 1.45588 7.75593 2.43468L7.02328 3.83784L6.29062 2.43468C5.78755 1.47119 4.84798 0.846288 3.79598 0.826973L3.74582 0.826512C2.18004 0.826512 0.826512 2.19043 0.826512 3.97989C0.826516 4.96305 1.24182 5.82993 1.87937 6.40362L1.94175 6.45816L1.98395 6.49414L7.02328 12.1053L12.0624 6.49437L12.1047 6.45839C12.7775 5.8859 13.2202 4.99482 13.2202 3.97989ZM14.0467 3.97989C14.0467 5.23743 13.4975 6.3585 12.6403 7.08785L7.02328 13.3423L1.40604 7.08762C0.549021 6.35826 4.58744e-06 5.23729 0 3.97989C0 1.78187 1.67709 0 3.74582 0C5.15622 3.30636e-05 6.38435 0.828403 7.02328 2.0521C7.66222 0.828372 8.89041 7.93559e-07 10.3008 0C12.3696 1.65528e-05 14.0467 1.78188 14.0467 3.97989Z" fill="#DAA520"/>
</svg>
