<svg width="15" height="17" viewBox="0 0 15 17" fill="none" xmlns="http://www.w3.org/2000/svg">
<path d="M12.8573 0.0078924C13.1656 0.0464371 13.3927 0.215746 13.5418 0.373422C13.823 0.670804 14.0092 1.11719 14.1425 1.5515C14.284 2.01249 14.3976 2.56797 14.482 3.1724C14.6508 4.38258 14.7114 5.84984 14.6207 7.27052C14.5308 8.68046 14.2882 10.1038 13.8166 11.1954C12.7124 13.7508 10.1217 15.7191 7.2645 15.7191C3.94653 15.7191 1.19724 13.172 1.11197 9.94051L1.11011 9.78592C1.11011 8.11405 1.91664 6.684 3.01365 5.65706C4.10543 4.63505 5.53451 3.963 6.89618 3.82243C9.1707 3.58761 10.6806 2.72899 11.2611 1.52728C11.4622 0.993196 11.7093 0.5181 12.055 0.246301C12.2569 0.0876279 12.5337 -0.0325237 12.8573 0.0078924ZM2.54661 10.015C2.67147 12.3707 4.70967 14.2886 7.2645 14.2887C9.47221 14.2886 11.5927 12.7357 12.5034 10.6278C12.8811 9.75366 13.1077 8.5175 13.1931 7.17925C13.2778 5.85174 13.2201 4.48162 13.065 3.3703C12.9874 2.81409 12.8874 2.33783 12.7749 1.97151C12.7518 1.89624 12.7288 1.82894 12.7069 1.76895C12.6688 1.8542 12.6284 1.95309 12.5863 2.06696L12.5752 2.09676L12.5617 2.12563C11.6707 4.0008 9.53099 4.98813 7.04286 5.24497C6.01825 5.35074 4.87518 5.87432 3.9915 6.7015C3.11305 7.52384 2.54057 8.59685 2.54056 9.78592L2.54661 10.015Z" fill="#E9B020"/>
<path d="M7.56012 8.86622C7.76155 8.52645 8.20005 8.4143 8.53983 8.6157C8.8796 8.81713 8.99174 9.25563 8.79035 9.59541C8.68603 9.77138 8.53447 9.9187 8.40293 10.0308C8.26106 10.1517 8.09236 10.2733 7.91028 10.3917C7.54536 10.6289 7.08815 10.8783 6.59391 11.1115C5.61594 11.5731 4.41399 12.0092 3.40845 12.1495C2.38486 12.2923 1.90238 12.8456 1.65484 13.4924C1.38779 14.1903 1.40152 15.0074 1.47976 15.5161C1.53973 15.9064 1.27177 16.2713 0.881411 16.3314C0.491082 16.3914 0.126189 16.1238 0.066071 15.7335C-0.0336905 15.085 -0.0686251 13.9938 0.318915 12.9811C0.726054 11.9173 1.60149 10.9571 3.21102 10.7325C4.01531 10.6203 5.06955 10.2493 5.98345 9.81799C6.43506 9.60484 6.83267 9.38617 7.13033 9.19263C7.27949 9.09564 7.3943 9.01078 7.47491 8.94212C7.5658 8.86468 7.57614 8.8392 7.56012 8.86622Z" fill="#E9B020"/>
</svg>
