<svg width="25" height="25" viewBox="0 0 25 25" fill="none" xmlns="http://www.w3.org/2000/svg">
<g clip-path="url(#clip0_422_2129)">
<path d="M0.66571 9.19946H5.83495V25.6876H0.66571V9.19946Z" fill="white" fill-opacity="0.46"/>
<path d="M6.28058 4.03025C6.28058 5.7038 4.9239 7.06049 3.25034 7.06049C1.57678 7.06049 0.220093 5.7038 0.220093 4.03025C0.220093 2.35669 1.57678 1 3.25034 1C4.9239 1 6.28058 2.35669 6.28058 4.03025Z" fill="white" fill-opacity="0.46"/>
<path d="M23.8034 10.5326C22.7234 9.37362 21.1368 8.66479 19.4265 8.66479C17.2371 8.66479 15.3315 9.87001 14.3464 11.6483V9.19954H9.35541V25.6876H14.5692V16.7306C14.5692 14.8109 15.5461 13.3348 17.4658 13.3348C18.7456 13.3348 20.1395 14.4259 20.1395 15.7057V16.2404V25.6876H25.2196V15.1709C25.2196 14.8023 25.1845 13.6842 25.1177 13.3348C25.0738 13.0498 25.0253 12.7813 24.9688 12.5387C24.7919 11.7784 24.3356 11.1036 23.8034 10.5326Z" fill="white" fill-opacity="0.46"/>
</g>
<defs>
<clipPath id="clip0_422_2129">
<rect width="25" height="25" fill="white"/>
</clipPath>
</defs>
</svg>
