<svg width="16" height="15" viewBox="0 0 16 15" fill="none" xmlns="http://www.w3.org/2000/svg">
<path d="M8.02671 3.51167C8.02671 2.12635 6.90369 1.00333 5.51838 1.00333C4.13307 1.00333 3.01005 2.12635 3.01005 3.51167C3.01005 4.89698 4.13307 6.02 5.51838 6.02V7.02333C3.57894 7.02333 2.00671 5.45111 2.00671 3.51167C2.00671 1.57223 3.57894 0 5.51838 0C7.45782 0 9.03005 1.57223 9.03005 3.51167C9.03005 5.45111 7.45782 7.02333 5.51838 7.02333V6.02C6.90369 6.02 8.02671 4.89698 8.02671 3.51167Z" fill="#DAA520"/>
<path d="M8.02676 9.02979C9.68913 9.02979 11.0368 10.3774 11.0368 12.0398V14.0465H10.0334V12.0398C10.0334 10.9315 9.13501 10.0331 8.02676 10.0331H3.01009C1.90184 10.0331 1.00342 10.9315 1.00342 12.0398V14.0465H9.15527e-05V12.0398C9.15527e-05 10.3774 1.34771 9.02979 3.01009 9.02979H8.02676Z" fill="#DAA520"/>
<path d="M10.2141 0.00494878C12.0695 0.0990395 13.545 1.63296 13.545 3.51172C13.545 5.28135 12.236 6.74525 10.5335 6.98803C10.2592 7.02715 10.0333 6.79878 10.0333 6.52172C10.0333 6.24465 10.2602 6.02528 10.5318 5.97052C11.6783 5.73935 12.5417 4.72636 12.5417 3.51172C12.5416 2.29477 11.675 1.28019 10.5252 1.05158C10.2571 0.998289 10.0333 0.781822 10.0333 0.508513V0.180892C10.0333 0.0818182 10.1151 0.00226483 10.2141 0.00494878Z" fill="#DAA520"/>
<path d="M12.5416 9.02979C14.204 9.02979 15.5516 10.3774 15.5516 12.0398V14.0465H14.5483V12.0398C14.5483 10.9315 13.6499 10.0331 12.5416 10.0331V9.02979Z" fill="#DAA520"/>
</svg>
