<svg width="33" height="34" viewBox="0 0 33 34" fill="none" xmlns="http://www.w3.org/2000/svg">
<path d="M3.17129 0.787461C4.08543 -0.122278 5.15658 -0.187894 6.16166 0.305506C7.06865 0.750754 7.62924 1.65525 8.11801 2.53954L10.8073 7.40504C11.4645 8.59408 11.4459 10.0416 10.7584 11.2134C8.53331 13.3399 9.32825 15.1801 11.4547 17.4054L15.5891 21.7319C17.7155 23.9572 18.7047 24.7808 20.9298 22.6543C21.6188 21.3756 23.2209 20.908 24.4896 21.6152L31.5721 25.5632C31.8743 25.7316 32.1603 25.9348 32.3748 26.2063C33.3093 27.3894 33.1983 28.6224 32.0276 29.7874C27.6955 34.0987 21.3648 34.335 17.0538 30.0025L3.31312 15.9413C-0.997908 11.6088 -1.16088 5.0988 3.17129 0.787461Z" fill="black"/>
</svg>
