<svg width="14" height="17" viewBox="0 0 14 17" fill="none" xmlns="http://www.w3.org/2000/svg">
<path d="M8.37141 6.56163C8.37141 5.66319 7.64318 4.9348 6.74474 4.93478C5.84628 4.93478 5.11788 5.66317 5.11788 6.56163C5.1179 7.46007 5.84629 8.18831 6.74474 8.18831V9.27365L6.67474 9.27276C5.23256 9.23625 4.07017 8.0738 4.03361 6.63163L4.03271 6.56163C4.03271 5.06385 5.24695 3.84961 6.74474 3.84961L6.81473 3.8505C8.28015 3.88765 9.45676 5.08726 9.45676 6.56163L9.45586 6.63163C9.41872 8.09703 8.21909 9.27363 6.74474 9.27365V8.18831C7.64316 8.18829 8.37139 7.46006 8.37141 6.56163Z" fill="#DAA520"/>
<path d="M12.2816 6.78238C12.2816 3.74524 9.81952 1.28315 6.78238 1.28315C3.74524 1.28315 1.28315 3.74524 1.28315 6.78238C1.28315 7.97561 1.66188 9.07664 2.30585 9.97702L2.35543 10.0465L2.35758 10.0486L2.40269 10.1079C2.6299 10.4065 2.88657 10.6813 3.1685 10.9274L3.29095 11.031L3.34841 11.0785L6.7822 14.6471L10.2162 11.0785L10.2736 11.031C10.604 10.7592 10.9022 10.4492 11.1619 10.1079L11.2072 10.0484L11.2097 10.0458L11.2589 9.97702C11.9029 9.07664 12.2816 7.97561 12.2816 6.78238ZM13.5648 6.78238C13.5648 8.2522 13.097 9.61269 12.3026 10.7235H12.3385L12.1832 10.8848C11.8635 11.3049 11.4963 11.6867 11.089 12.0219L6.78238 16.4977L2.47555 12.0219C2.0683 11.6867 1.70103 11.3049 1.38143 10.8848L1.22623 10.7235H1.26221C0.467732 9.61269 0 8.2522 0 6.78238C0 3.03658 3.03658 0 6.78238 0C10.5282 0 13.5648 3.03658 13.5648 6.78238Z" fill="#DAA520"/>
</svg>
