<svg width="25" height="34" viewBox="0 0 25 34" fill="none" xmlns="http://www.w3.org/2000/svg">
<path d="M12.5 0C5.59645 0 7.62939e-06 5.70536 0 12.7433C0 15.4439 0.82411 17.9482 2.22983 20.0093L2.88055 21.0412L7.00317 26.9144L12.5 34L22.0137 21.149L22.5687 20.3677L23.1083 19.4921H23.105C24.3059 17.5351 25 15.2218 25 12.7433C25 5.70536 19.4036 0 12.5 0ZM12.5 9.26783C14.3828 9.26783 15.9091 10.8238 15.9091 12.7433C15.9091 14.6627 14.3828 16.2187 12.5 16.2187C10.6172 16.2187 9.09091 14.6627 9.09091 12.7433C9.09091 10.8238 10.6172 9.26783 12.5 9.26783Z" fill="black"/>
</svg>
