<svg width="224" height="67" viewBox="0 0 224 67" fill="none" xmlns="http://www.w3.org/2000/svg">
<path d="M212.028 11.2882V17.7386C214.422 12.7053 216.768 10.8484 219.309 10.8484C220.97 10.8484 222.339 11.6791 224 12.9008L222.045 19.1558C221.312 18.6671 219.7 17.4943 217.892 17.4943C215.253 17.4943 213.885 19.6933 212.614 22.4298C212.516 22.6742 212.125 23.8958 212.028 24.0913V33.8158H204.942V11.2882H212.028Z" fill="#E3DFDE"/>
<path d="M199.74 26.7301V31.2747C195.586 34.2068 191.091 34.2556 189.478 34.2556C179.509 34.2556 176.626 27.4143 176.626 22.5764C176.626 15.3441 182.246 10.8484 188.55 10.8484C193.241 10.8484 200.278 13.6338 200.131 23.7004H183.956C184.249 27.8052 187.035 29.8576 191.433 29.8576C195.489 29.8576 197.541 28.3427 199.74 26.7301ZM184.103 19.9865H193.876C193.681 17.983 192.361 15.1487 188.989 15.1487C185.52 15.1487 184.249 18.0318 184.103 19.9865Z" fill="#E3DFDE"/>
<path d="M172.426 0.488525V33.8157H165.39V32.0077C164.51 32.6918 162.555 34.2555 159.135 34.2555C154.297 34.2555 148.628 30.5417 148.628 22.5275C148.628 15.0509 153.662 10.8483 159.526 10.8483C160.992 10.8483 163.093 11.0926 165.39 12.2654V0.488525H172.426ZM165.39 27.6585V16.9078C165.145 16.7123 163.435 15.5884 161.431 15.5884C159.868 15.5884 158.548 16.2237 157.62 17.1521C156.838 17.9829 155.909 19.2534 155.909 22.6252C155.909 28.8313 160.112 29.2711 161.236 29.2711C163.337 29.2711 164.608 28.2449 165.39 27.6585Z" fill="#E3DFDE"/>
<path d="M143.861 11.2882V33.8159H137.069V11.2882H143.861ZM140.636 0C142.737 0 144.496 1.66147 144.496 3.86048C144.496 6.05949 142.737 7.76983 140.636 7.76983C138.486 7.76983 136.727 6.05949 136.727 3.86048C136.727 1.66147 138.535 0 140.636 0Z" fill="#E3DFDE"/>
<path d="M131.866 26.7301V31.2747C127.713 34.2068 123.217 34.2556 121.604 34.2556C111.636 34.2556 108.752 27.4143 108.752 22.5764C108.752 15.3441 114.372 10.8484 120.676 10.8484C125.367 10.8484 132.404 13.6338 132.257 23.7004H116.082C116.376 27.8052 119.161 29.8576 123.559 29.8576C127.615 29.8576 129.667 28.3427 131.866 26.7301ZM116.229 19.9865H126.002C125.807 17.983 124.488 15.1487 121.116 15.1487C117.646 15.1487 116.376 18.0318 116.229 19.9865Z" fill="#E3DFDE"/>
<path d="M49.2854 27.6586V32.7407C48.1126 33.1805 45.1806 34.2556 41.6621 34.2556C34.3321 34.2556 28.6147 30.1997 28.6147 22.6253C28.6147 14.7089 35.114 10.8484 41.3689 10.8484C43.5191 10.8484 46.5 11.3859 48.9433 12.3144V17.592C47.8194 17.0056 45.5715 16.0771 43.177 16.0771C37.6551 16.0771 36.1891 19.9865 36.1891 22.5764C36.1891 25.8505 38.2415 29.2223 42.7861 29.2223C44.8874 29.2223 46.5488 28.6359 49.2854 27.6586Z" fill="#E3DFDE"/>
<path d="M23.896 2.63902V9.48038C21.5992 8.35644 17.4455 6.25516 13.1941 6.25516C8.30743 6.25516 8.16083 8.64964 8.16083 8.99171C8.16083 10.9952 11.4349 12.1681 16.2239 13.8784C20.4264 15.3933 25.4108 17.9343 25.4108 24.3848C25.4108 32.1057 17.3478 34.2559 12.3634 34.2559C6.74369 34.2559 1.4172 31.6171 0.586464 31.0307V23.8472C3.46961 25.6553 7.28122 28.0009 12.1679 28.0009C13.243 28.0009 17.1523 27.952 17.1523 24.9712C17.1523 22.7722 15.2465 22.088 10.8485 20.5732C6.05955 18.9117 6.10352e-05 16.5661 6.10352e-05 9.52924C6.10352e-05 4.44709 4.25148 0.0490723 12.6077 0.0490723C15.2465 0.0490723 18.5695 0.342273 23.896 2.63902Z" fill="#E3DFDE"/>
<path d="M60.8702 14.6116C63.6067 11.2398 66.2457 10.8489 68.0538 10.8489C69.764 10.8489 72.5981 11.2395 74.6016 14.1711C75.8233 15.9792 76.1661 17.6409 76.1661 20.1331V30.0745C73.2861 30.3838 70.8203 31.025 69.129 31.8684V21.6477C69.129 19.8884 69.1287 16.0286 65.5128 16.0286C63.5581 16.0286 61.7986 17.6414 60.8702 19.4495V33.8157H53.6378V0.488525H60.8702V14.6116Z" fill="#E3DFDE"/>
<path d="M96.1497 10.8484C100.303 10.8484 102.551 13.2433 103.529 15.2468C104.359 16.9083 104.409 18.5207 104.409 20.5242V33.8162H97.2737V21.1111C97.2737 19.694 97.274 18.7162 96.9319 17.8855C96.4433 16.5172 95.1723 15.7839 93.7552 15.7839C90.9211 15.7842 89.1128 18.8138 88.8196 19.3025V31.2039C86.8998 30.5767 84.4521 30.1443 81.7347 29.9978V11.2888H88.8196V14.5134C90.7254 12.3145 92.8758 10.8485 96.1497 10.8484Z" fill="#E3DFDE"/>
<path d="M216.251 48.1252V50.9844C215.499 50.5028 214.234 49.6902 212.489 49.6902C209.69 49.6902 208.366 52.0679 208.366 54.2048C208.366 56.4621 209.69 58.7193 213 58.7193C214.415 58.7193 215.559 58.2679 216.552 57.8164V60.465C215.95 60.6757 214.535 61.2475 212.609 61.2475C207.944 61.2475 205.657 57.997 205.657 54.2951C205.657 51.0145 207.523 47.1921 212.338 47.1921C214.084 47.1921 215.198 47.6737 216.251 48.1252Z" fill="#E3DFDE"/>
<path d="M196.996 41.7747C197.899 41.7747 198.591 42.497 198.591 43.3397C198.591 44.1824 197.869 44.9349 196.996 44.9349C195.973 44.9349 195.431 44.0018 195.431 43.3397C195.431 42.5873 196.093 41.7747 196.996 41.7747ZM198.351 47.463V60.9766H195.672V47.463H198.351Z" fill="#E3DFDE"/>
<path d="M179.668 47.463H182.347V50.563C183.22 49.2086 184.484 47.1921 186.38 47.1921C186.771 47.1921 187.975 47.2222 189.54 48.7271L188.125 51.0747C187.794 50.7436 186.59 49.7504 185.537 49.7504C184.544 49.7504 182.347 50.8339 182.347 53.9038V60.9766H179.668V47.463Z" fill="#E3DFDE"/>
<path d="M168.271 44.6638V47.4629H172.545V49.8706H168.271V55.7697C168.301 57.4551 168.331 57.7561 168.752 58.2376C169.264 58.7794 169.926 58.8095 170.197 58.8095C170.739 58.8095 171.762 58.7493 173.237 57.8464V60.3444C171.973 61.0367 170.558 61.2474 169.776 61.2474C168.843 61.2474 167.187 60.8561 166.254 59.5318C165.592 58.5386 165.592 57.0939 165.592 55.86V49.8706H163.245V49.5998L168.271 44.6638Z" fill="#E3DFDE"/>
<path d="M157.631 48.1252V50.9844C156.878 50.5028 155.614 49.6902 153.869 49.6902C151.07 49.6902 149.745 52.0679 149.745 54.2048C149.745 56.4621 151.07 58.7193 154.38 58.7193C155.795 58.7193 156.939 58.2679 157.932 57.8164V60.465C157.33 60.6757 155.915 61.2475 153.989 61.2475C149.324 61.2475 147.037 57.997 147.037 54.2951C147.037 51.0145 148.903 47.1921 153.718 47.1921C155.464 47.1921 156.577 47.6737 157.631 48.1252Z" fill="#E3DFDE"/>
<path d="M140.46 57.0339V59.6524C139.527 60.2543 137.992 61.2475 135.163 61.2475C133.748 61.2475 132.123 61.0368 130.498 59.3514C128.722 57.5155 128.481 55.4388 128.481 54.1446C128.481 49.931 131.13 47.1921 134.802 47.1921C137.962 47.1921 140.099 49.4494 140.55 52.429C140.701 53.332 140.701 53.9339 140.701 54.4456H131.19C131.28 56.4621 132.605 58.6893 135.554 58.6893C137.3 58.6893 139.015 58.0873 140.46 57.0339ZM131.25 52.8504H138.052C138.022 52.3087 137.811 49.5096 134.772 49.5096C133.929 49.5096 132.906 49.8407 132.183 50.6533C131.461 51.4358 131.341 52.2485 131.25 52.8504Z" fill="#E3DFDE"/>
<path d="M121.115 40.4502V60.9765H118.436V40.4502H121.115Z" fill="#E3DFDE"/>
<path d="M110.476 40.4502V43.0686H101.778V49.3289H110.175V51.9473H101.778V58.3279H110.747V60.9765H98.8287V40.4502H110.476Z" fill="#E3DFDE"/>
<path d="M64.0209 39.9058C71.9581 31.8902 83.6871 29.8178 89.0502 35.1284C91.673 37.7258 92.4299 41.6078 91.5912 45.8345H84.0551L83.0082 49.0161H90.683C90.3404 49.9388 89.927 50.8658 89.4486 51.7896H82.6527L81.559 54.9712H87.5209C86.5188 56.4083 85.3567 57.8099 84.0424 59.1372C76.1052 67.1527 64.7912 69.2747 59.4281 63.9644C56.6098 61.1736 55.831 56.8857 56.8773 52.2817H63.1127L64.1176 49.1001H57.8744C58.2222 48.2272 58.6312 47.3525 59.101 46.4839H64.599L65.6664 43.3022H61.1185C61.9745 42.1338 62.9428 40.9944 64.0209 39.9058ZM78.5287 39.1001C74.9764 38.9779 71.8132 41.3328 70.9115 44.771L68.5902 53.6216C68.4092 54.3119 67.7853 54.7935 67.0717 54.7935H62.182L61.098 59.77H70.4144C70.4344 59.77 70.4544 59.7685 70.474 59.7651C74.6168 59.0478 77.9321 55.9279 78.8998 51.8364L80.7611 43.9653C80.8394 43.6349 81.1344 43.4019 81.474 43.4019H86.0746L87.0326 39.1001H78.5287Z" fill="#E3DFDE"/>
</svg>
