<svg width="22" height="25" viewBox="0 0 22 25" fill="none" xmlns="http://www.w3.org/2000/svg">
<path d="M11.4199 0.764648C13.8659 2.58448 17.0858 3.07526 20.3115 3.53809L21.2178 3.66895L21.168 4.58203C20.9233 9.09754 20.8352 12.9338 19.5342 16.1348C18.2045 19.4059 15.6644 21.9299 10.8525 24.1143L10.8037 24.2246C10.7715 24.2102 10.7401 24.1941 10.708 24.1797C10.6936 24.1862 10.6795 24.1937 10.665 24.2002L10.6416 24.1494C5.81568 21.9637 3.21042 19.4318 1.81445 16.1533C0.445477 12.9377 0.295379 9.09588 0.0498047 4.56445L0 3.65137L0.90625 3.52051C4.18447 3.05015 7.457 2.55092 9.91699 0.657227L10.5391 0.0175781C10.5586 0.0365712 10.5799 0.0544764 10.5996 0.0732422C10.6257 0.0485809 10.6529 0.0250563 10.6787 0L11.4199 0.764648ZM10.5957 2.63086C8.00147 4.38809 4.85984 4.96014 2.0957 5.36719C2.32459 9.57592 2.53491 12.7386 3.65527 15.3701C4.73391 17.9031 6.70611 20.0261 10.708 21.9736C14.7337 20.0224 16.655 17.9072 17.6816 15.3818C18.749 12.7558 18.8999 9.60639 19.1221 5.38477C16.3485 4.97633 13.1949 4.40223 10.5957 2.63086Z" fill="black"/>
</svg>
