<svg width="285" height="58" viewBox="0 0 285 58" fill="none" xmlns="http://www.w3.org/2000/svg">
<path d="M118.465 13.4554H125.277L125.15 17.4026H125.404C126.168 15.9171 127.208 14.8136 128.524 14.0921C129.882 13.3705 131.389 13.0098 133.044 13.0098C136.355 13.0098 138.541 13.9011 139.602 15.6837C140.705 17.4663 141.257 19.8431 141.257 22.8141V24.8514H134.699V23.5144C134.699 21.9865 134.508 20.7768 134.126 19.8855C133.787 18.9518 132.662 18.4849 130.752 18.4849C128.927 18.4849 127.59 19.0367 126.741 20.1402C125.935 21.2013 125.532 22.5807 125.532 24.2784C125.532 24.3633 125.532 24.4694 125.532 24.5967C125.532 24.6816 125.553 24.7665 125.595 24.8514C125.595 24.9787 125.595 25.106 125.595 25.2334C125.595 25.3182 125.595 25.4031 125.595 25.488V43.1868H118.465V13.4554Z" fill="#E3DFDE"/>
<path d="M91.1901 22.1777H83.996C83.996 17.9334 85.1844 15.3868 87.5612 14.5379C89.9805 13.6891 92.9303 13.2646 96.4106 13.2646C100.485 13.2646 103.817 13.8164 106.406 14.9199C108.995 16.0234 110.289 18.9945 110.289 23.833V43.187H103.286L103.477 39.4945C102.374 41.4468 100.994 42.614 99.3392 42.996C97.7263 43.378 95.8589 43.569 93.7367 43.569C90.5959 43.569 88.0069 42.996 85.9696 41.85C83.9324 40.7041 82.9137 38.3273 82.9137 34.7196C82.9137 30.8997 83.8899 28.3532 85.8423 27.0799C87.8371 25.8066 90.5535 25.1699 93.9914 25.1699C94.4582 25.1699 94.9463 25.1911 95.4557 25.2336C95.965 25.2336 96.4743 25.2336 96.9836 25.2336C97.6627 25.3185 98.3206 25.4246 98.9572 25.5519C99.5938 25.6368 100.188 25.8066 100.74 26.0612C101.207 26.2734 101.589 26.5705 101.886 26.9525C102.225 27.2921 102.522 27.6528 102.777 28.0348C102.82 28.0773 102.841 28.1409 102.841 28.2258C102.883 28.2683 102.926 28.3107 102.968 28.3532L103.095 23.833C103.095 21.3713 102.629 19.7584 101.695 18.9945C100.803 18.2305 99.1482 17.8485 96.7289 17.8485C96.4318 17.8485 96.0923 17.8485 95.7103 17.8485C95.3708 17.8485 95.01 17.8697 94.628 17.9122C93.9914 17.997 93.3972 18.1668 92.8454 18.4215C92.2936 18.6337 91.8692 18.9945 91.5721 19.5038C91.4448 19.7584 91.3599 20.0555 91.3174 20.3951C91.275 20.6922 91.2326 20.9893 91.1901 21.2864C91.1901 21.4137 91.1901 21.5623 91.1901 21.732C91.1901 21.8594 91.1901 22.0079 91.1901 22.1777ZM90.0442 33.892C90.0442 36.099 90.5322 37.4572 91.5084 37.9665C92.5271 38.4334 94.0126 38.6668 95.965 38.6668C96.1772 38.6668 96.3894 38.6668 96.6016 38.6668C96.8138 38.6668 97.026 38.6668 97.2383 38.6668C98.7238 38.5819 100.082 38.2848 101.313 37.7755C102.544 37.2238 103.159 36.0353 103.159 34.2103C103.159 34.0405 103.159 33.8707 103.159 33.701C103.159 33.4888 103.138 33.2978 103.095 33.128C103.053 32.746 102.968 32.364 102.841 31.982C102.713 31.6 102.501 31.2817 102.204 31.0271C101.78 30.6875 101.249 30.4329 100.612 30.2631C100.018 30.0933 99.4029 29.966 98.7662 29.8811C98.2993 29.8387 97.8325 29.8174 97.3656 29.8174C96.9411 29.8174 96.5379 29.8174 96.156 29.8174C95.8589 29.8174 95.5405 29.8174 95.201 29.8174C94.8614 29.8174 94.5219 29.8387 94.1824 29.8811C93.6306 29.9235 93.0788 30.0297 92.5271 30.1994C91.9753 30.3268 91.4872 30.5602 91.0628 30.8997C90.7233 31.1968 90.4686 31.5576 90.2988 31.982C90.1715 32.364 90.0866 32.7885 90.0442 33.2553C90.0442 33.3402 90.0442 33.4463 90.0442 33.5736C90.0442 33.6585 90.0442 33.7646 90.0442 33.892Z" fill="#E3DFDE"/>
<path d="M75.5521 0.722656V43.1869H68.358V0.722656H75.5521Z" fill="#E3DFDE"/>
<path d="M33.4952 27.0799C33.4952 21.7321 34.4077 18.0608 36.2328 16.066C38.0578 14.0711 41.6655 13.0737 47.0557 13.0737C52.7007 13.0737 56.5205 13.9863 58.5154 15.8113C60.5102 17.6364 61.5076 21.4562 61.5076 27.2709C61.5076 32.5339 60.8922 36.566 59.6613 39.3672C58.4729 42.126 54.7167 43.5054 48.3927 43.5054C43.1298 43.5054 39.3311 42.6778 36.9967 41.0225C34.6624 39.3248 33.4952 35.6322 33.4952 29.9448V27.0799ZM40.7529 27.8439V29.8812C40.7529 32.3429 41.0076 34.3589 41.5169 35.9293C42.0262 37.4573 43.7876 38.2212 46.8011 38.2212H47.6287C47.9258 38.2212 48.2441 38.2212 48.5837 38.2212C48.9657 38.2212 49.3477 38.2 49.7296 38.1576C50.3663 38.0727 50.9817 37.9241 51.5759 37.7119C52.2126 37.4997 52.7219 37.1389 53.1039 36.6296C53.5283 36.0354 53.8254 35.3139 53.9952 34.465C54.1649 33.6162 54.2711 32.7249 54.3135 31.7911C54.3559 31.3667 54.3772 30.9423 54.3772 30.5178C54.3772 30.0509 54.3772 29.6053 54.3772 29.1809V26.8889C54.3772 26.4645 54.3772 26.0401 54.3772 25.6157C54.3772 25.1488 54.3559 24.6607 54.3135 24.1514C54.2286 23.2601 54.0801 22.4112 53.8678 21.6048C53.6981 20.7984 53.3797 20.1617 52.9129 19.6948C52.5309 19.3129 52.064 19.037 51.5123 18.8672C51.0029 18.6974 50.4512 18.6125 49.857 18.6125C49.6023 18.5701 49.3689 18.5489 49.1567 18.5489C48.9444 18.5489 48.7322 18.5489 48.52 18.5489H46.7374C46.5252 18.5489 46.2918 18.5489 46.0371 18.5489C45.8249 18.5489 45.6127 18.5701 45.4005 18.6125C44.8487 18.6125 44.2969 18.6974 43.7452 18.8672C43.2359 18.9945 42.8114 19.228 42.4719 19.5675C42.0899 19.9071 41.7928 20.3103 41.5806 20.7771C41.4108 21.244 41.2623 21.7109 41.1349 22.1778C41.0925 22.3051 41.05 22.4324 41.0076 22.5598C41.0076 22.6871 41.0076 22.8144 41.0076 22.9417C40.9652 23.3662 40.9227 23.7906 40.8803 24.215C40.8378 24.597 40.8166 24.979 40.8166 25.361C40.7742 25.7854 40.7529 26.2099 40.7529 26.6343C40.7529 27.0163 40.7529 27.4195 40.7529 27.8439Z" fill="#E3DFDE"/>
<path d="M26.1025 21.541H19.2904C19.2904 20.1404 18.866 19.1854 18.0171 18.6761C17.2107 18.1243 16.1709 17.8485 14.8976 17.8485C14.6429 17.8485 14.3883 17.8485 14.1336 17.8485C13.8789 17.8485 13.6243 17.8485 13.3696 17.8485C13.0725 17.8909 12.7966 17.9121 12.542 17.9121C12.2873 17.9121 12.0327 17.9121 11.778 17.9121C10.5896 17.9121 9.5073 18.0819 8.53111 18.4214C7.55492 18.7185 7.06683 19.6523 7.06683 21.2227C7.06683 22.7931 7.36393 23.8117 7.95813 24.2786C8.59478 24.703 9.63463 24.9577 11.0777 25.0426C11.5446 25.085 12.0114 25.1062 12.4783 25.1062C12.9876 25.1062 13.497 25.1062 14.0063 25.1062C14.2185 25.1487 14.4307 25.1699 14.6429 25.1699C14.8551 25.1699 15.0673 25.1699 15.2796 25.1699C18.2506 25.2548 20.9881 25.7429 23.4923 26.6342C25.9964 27.483 27.2485 29.8598 27.2485 33.7646C27.2485 38.1362 25.9752 40.8738 23.4286 41.9773C20.9245 43.0384 17.7837 43.5689 14.0063 43.5689C13.497 43.5689 12.9664 43.5689 12.4147 43.5689C11.9053 43.5689 11.3748 43.5477 10.823 43.5053C8.10668 43.4204 5.62377 42.9111 3.37428 41.9773C1.1248 41.0011 6.10352e-05 38.8153 6.10352e-05 35.4199V33.8283H7.19416C7.19416 35.7806 7.57615 37.0752 8.34012 37.7118C9.14654 38.3485 10.4835 38.6668 12.351 38.6668H14.5156C16.2982 38.6668 17.6988 38.4758 18.7174 38.0938C19.7361 37.6694 20.2454 36.4597 20.2454 34.4649C20.2454 32.937 19.8846 31.982 19.1631 31.6C18.4416 31.1756 17.4017 30.9421 16.0435 30.8997C15.7889 30.8997 15.5342 30.8997 15.2796 30.8997C15.0249 30.8997 14.7915 30.8997 14.5792 30.8997C14.3246 30.8997 14.0699 30.8997 13.8153 30.8997C13.5606 30.8573 13.306 30.836 13.0513 30.836C9.65586 30.7936 6.66362 30.3692 4.07459 29.5627C1.48557 28.7139 0.191055 26.0612 0.191055 21.6047C0.191055 17.5301 1.50679 15.0684 4.13826 14.2196C6.81217 13.3707 9.76196 12.9463 12.9876 12.9463C13.6243 12.9463 14.2821 12.9463 14.9612 12.9463C15.6403 12.9463 16.3194 12.9675 16.9985 13.01C19.2904 13.1797 21.3914 13.7315 23.3013 14.6652C25.2112 15.599 26.1662 17.4665 26.1662 20.2677C26.1662 20.395 26.1662 20.5224 26.1662 20.6497C26.1662 20.7346 26.1662 20.8195 26.1662 20.9044C26.1662 20.9892 26.145 21.0954 26.1025 21.2227C26.1025 21.3076 26.1025 21.4137 26.1025 21.541Z" fill="#E3DFDE"/>
<path d="M201.453 17.4102C200.314 15.3609 198.948 14.0849 197.354 13.584C195.76 13.0832 193.825 12.833 191.548 12.833C186.448 12.833 183.192 14.2449 181.78 17.0684C180.368 19.8918 179.663 23.5353 179.663 27.998C179.663 32.9161 180.187 37.0371 181.234 40.3613C182.281 43.6857 185.765 45.3486 191.685 45.3486C194.19 45.3486 196.193 45.0519 197.696 44.46C199.244 43.8679 200.633 42.456 201.863 40.2246L201.726 45.0752H209.24V0H282.001C283.668 0.000243535 284.839 1.64372 284.294 3.21973L276.683 25.2256C276.398 20.8309 275.428 17.7478 273.769 15.9756C271.811 13.8352 267.849 12.7646 261.883 12.7646C255.918 12.7647 252.024 13.9941 250.203 16.4531C248.381 18.8667 247.47 22.8743 247.47 28.4756C247.47 34.7143 248.336 39.1089 250.066 41.6592C251.796 44.1639 256.032 45.416 262.772 45.416C265.344 45.416 267.736 45.1757 269.95 44.6982L266.198 55.5498C265.691 57.016 264.31 57.9999 262.758 58H237.042C238.094 57.6105 238.99 57.1278 239.73 56.5508C242.007 54.7747 243.145 51.1996 243.145 45.8262V13.2432H235.768L235.972 18.0928C235.79 17.7742 235.586 17.4782 235.358 17.2051C235.176 16.8863 234.993 16.5896 234.811 16.3164C233.718 14.8594 232.512 13.9254 231.191 13.5156C229.916 13.0603 228.185 12.833 226 12.833C220.489 12.833 217.028 14.3134 215.617 17.2734C214.205 20.2335 213.499 24.0814 213.499 28.8174C213.499 30.0924 213.521 31.3675 213.567 32.6426C213.612 33.8721 213.727 35.1244 213.909 36.3994C214.364 39.7238 215.753 42.0465 218.076 43.3672C220.444 44.6423 223.154 45.2803 226.205 45.2803C228.163 45.2803 229.985 44.9836 231.669 44.3916C233.4 43.754 234.698 42.4789 235.563 40.5664H235.768V47.3291C235.768 50.0159 235.085 51.7007 233.718 52.3838C232.352 53.1124 230.462 53.4766 228.048 53.4766C226.09 53.4765 224.588 53.1808 223.541 52.5889C222.493 51.9969 221.969 50.6078 221.969 48.4219L214.728 48.3535V49.7881C214.774 50.0158 214.796 50.244 214.796 50.4717C214.842 51.2002 214.933 51.9287 215.07 52.6572C215.206 53.3858 215.435 54.0686 215.753 54.7061C216.528 56.2088 217.666 57.2566 219.169 57.8486C219.293 57.9015 219.42 57.9503 219.545 58H140.946C139.278 58 138.107 56.3556 138.653 54.7793L146.992 30.6963C147.179 35.7686 148.03 39.4229 149.547 41.6592C151.278 44.1639 155.514 45.416 162.253 45.416C165.805 45.416 169.016 44.9605 171.884 44.0498C174.799 43.0935 176.256 40.4522 176.256 36.126V35.5117C176.256 35.284 176.234 35.0786 176.188 34.8965H168.674V35.5117C168.674 37.4698 168.014 38.6993 166.693 39.2002C165.418 39.7011 163.983 39.9521 162.389 39.9521C158.564 39.9521 156.288 39.2228 155.559 37.7656C154.876 36.2629 154.534 33.8268 154.534 30.457H176.188L176.256 28.1338C176.256 22.1684 175.254 18.1159 173.251 15.9756C171.292 13.8352 167.33 12.7646 161.365 12.7646C157.701 12.7647 154.819 13.2287 152.718 14.1562L156.773 2.44922C157.281 0.98341 158.661 0 160.212 0H201.519L201.453 17.4102ZM273.339 34.8965H269.193V35.5117C269.193 37.4698 268.532 38.6993 267.211 39.2002C265.937 39.701 264.502 39.9521 262.909 39.9521C259.083 39.9521 256.806 39.2229 256.078 37.7656C255.395 36.2629 255.053 33.8268 255.053 30.457H274.875L273.339 34.8965ZM194.007 18.6396C197.787 18.6397 199.996 19.5961 200.633 21.5088C201.271 23.4214 201.589 25.9945 201.589 29.2275V31.0713C201.589 31.7088 201.544 32.3925 201.453 33.1211C201.407 33.9407 201.294 34.7376 201.112 35.5117C200.93 36.2858 200.656 36.9686 200.292 37.5605C199.836 38.2435 199.222 38.7219 198.448 38.9951C197.719 39.2684 196.944 39.4509 196.125 39.542C195.806 39.5875 195.487 39.6104 195.169 39.6104H194.212C192.573 39.6104 191.161 39.3593 189.977 38.8584C188.793 38.3574 187.996 37.1965 187.586 35.375C187.45 34.8285 187.359 34.259 187.313 33.667C187.268 33.0752 187.222 32.4834 187.176 31.8916C187.131 31.3451 187.108 30.7756 187.108 30.1836V27.9297C187.108 25.152 187.472 22.9203 188.201 21.2354C188.929 19.5049 190.865 18.6396 194.007 18.6396ZM228.322 18.7754C231.874 18.7754 233.968 19.7322 234.606 21.6445C235.289 23.5117 235.631 25.9257 235.631 28.8857V29.5684C235.631 32.4829 235.312 34.8513 234.674 36.6729C234.037 38.4488 231.942 39.3369 228.39 39.3369C225.203 39.3369 223.222 38.6311 222.448 37.2197C221.719 35.808 221.354 33.6897 221.354 30.8662V26.7002C221.354 23.6491 221.787 21.5764 222.652 20.4834C223.563 19.3449 225.453 18.7754 228.322 18.7754ZM161.638 18.2979C164.735 18.2979 166.694 18.7761 167.513 19.7324C168.378 20.6889 168.811 22.6925 168.811 25.7432H154.602V25.4697C154.602 25.3789 154.625 25.2881 154.67 25.1973V24.7188C154.762 21.9865 155.285 20.2332 156.242 19.459C157.198 18.6848 158.997 18.2979 161.638 18.2979ZM262.157 18.2979C265.253 18.2979 267.212 18.7761 268.032 19.7324C268.897 20.6888 269.33 22.6924 269.33 25.7432H255.121V25.4697C255.121 25.3789 255.144 25.2881 255.189 25.1973V24.7188C255.28 21.9866 255.804 20.2332 256.76 19.459C257.717 18.6848 259.516 18.2979 262.157 18.2979Z" fill="#E3DFDE"/>
</svg>
