<svg width="94" height="117" viewBox="0 0 94 117" fill="none" xmlns="http://www.w3.org/2000/svg">
<path d="M83.6816 0.0078125L55.9482 26.3438L93.2588 53.0762L93.2646 53.0811L93.2578 53.084L45.9697 79.6172L45.9639 79.6104L73.6924 53.0801L43.2949 29.9365V56.3799H29.9277V11.2812H43.2949V23.5869L83.6758 0L83.6816 0.0078125ZM13.3682 68.3506H6.84473C3.06458 68.3506 0 65.286 0 61.5059V11.2812H13.3682V68.3506ZM43.2949 61.5059C43.2949 65.2859 40.2311 68.3504 36.4512 68.3506H14.5674V57.3799H43.2949V61.5059Z" fill="#E3DFDE"/>
<path d="M16.2356 93.7103L16.882 94.4941C16.2631 95.223 15.4243 95.6218 14.4616 95.6218C13.2515 95.6218 12.3026 95.0992 10.9549 93.7103C8.1908 93.559 6.18302 91.51 6.18302 88.8009C6.18302 85.9817 8.35582 83.8777 11.3125 83.8777C14.2416 83.8777 16.4144 85.968 16.4144 88.8009C16.4144 91.1937 14.8742 93.0502 12.6326 93.5728C13.279 94.2604 13.8566 94.5354 14.4754 94.5354C15.163 94.5354 15.7406 94.2604 16.2356 93.7103ZM7.55821 88.8009C7.55821 90.9186 9.15343 92.5001 11.3125 92.5001C13.444 92.5001 15.0392 90.9186 15.0392 88.8009C15.0392 86.6831 13.444 85.1016 11.3125 85.1016C9.15343 85.1016 7.55821 86.6831 7.55821 88.8009ZM22.7794 93.724C20.249 93.724 18.7088 92.2526 18.7088 89.461V83.9877H20.084V89.4059C20.084 91.5375 21.0604 92.5001 22.7931 92.5001C24.5259 92.5001 25.516 91.5375 25.516 89.4059V83.9877H26.8499V89.461C26.8499 92.2526 25.3235 93.724 22.7794 93.724ZM36.9351 93.614L35.8762 91.2074H30.7605L29.7016 93.614H28.2852L32.6445 83.9877H34.0059L38.379 93.614H36.9351ZM31.2418 90.1073H35.3949L33.3183 85.3904L31.2418 90.1073ZM40.0901 93.614V83.9877H44.1469C47.241 83.9877 49.3451 85.9405 49.3451 88.8009C49.3451 91.6612 47.241 93.614 44.1469 93.614H40.0901ZM41.4653 92.4176H44.0644C46.4434 92.4176 47.9699 90.9599 47.9699 88.8009C47.9699 86.6418 46.4434 85.1841 44.0644 85.1841H41.4653V92.4176ZM59.6613 93.614H58.1624L56.0858 90.6574C55.8933 90.6711 55.687 90.6849 55.4808 90.6849H53.1017V93.614H51.7265V83.9877H55.4808C57.9836 83.9877 59.4963 85.2529 59.4963 87.3432C59.4963 88.8284 58.7262 89.901 57.3785 90.3823L59.6613 93.614ZM55.4395 89.516C57.1997 89.516 58.1211 88.7184 58.1211 87.3432C58.1211 85.968 57.1997 85.1841 55.4395 85.1841H53.1017V89.516H55.4395ZM66.3387 93.724C63.3821 93.724 61.2093 91.62 61.2093 88.8009C61.2093 85.9817 63.3821 83.8777 66.3387 83.8777C69.2679 83.8777 71.4407 85.968 71.4407 88.8009C71.4407 91.6337 69.2679 93.724 66.3387 93.724ZM66.3387 92.5001C68.4703 92.5001 70.0655 90.9324 70.0655 88.8009C70.0655 86.6693 68.4703 85.1016 66.3387 85.1016C64.1797 85.1016 62.5845 86.6693 62.5845 88.8009C62.5845 90.9324 64.1797 92.5001 66.3387 92.5001ZM76.623 93.724C75.1515 93.724 73.7076 93.229 72.9375 92.5139L73.4463 91.4412C74.1614 92.0876 75.3853 92.5551 76.623 92.5551C78.2869 92.5551 79.002 91.9088 79.002 91.0699C79.002 88.7184 73.1713 90.2036 73.1713 86.6281C73.1713 85.1429 74.3264 83.8777 76.8567 83.8777C77.9844 83.8777 79.1533 84.1802 79.9509 84.7303L79.4971 85.8305C78.6582 85.2941 77.7094 85.0466 76.8567 85.0466C75.2203 85.0466 74.5189 85.7342 74.5189 86.5731C74.5189 88.9246 80.3497 87.4532 80.3497 90.9874C80.3497 92.4589 79.1671 93.724 76.623 93.724ZM5.56913 110.418H11.1799V111.614H4.19395V101.988H10.9874V103.184H5.56913V106.141H10.396V107.31H5.56913V110.418ZM13.6817 111.614V101.988H15.0568V110.418H20.2688V111.614H13.6817ZM28.0489 99.4161L25.7386 101.204H24.5009L26.3712 99.4161H28.0489ZM23.497 110.418H29.1078V111.614H22.1219V101.988H28.9153V103.184H23.497V106.141H28.324V107.31H23.497V110.418ZM33.5211 111.614V103.184H30.2206V101.988H38.183V103.184H34.8825V111.614H33.5211ZM47.8906 111.614H46.3916L44.3151 108.657C44.1226 108.671 43.9163 108.685 43.71 108.685H41.331V111.614H39.9558V101.988H43.71C46.2129 101.988 47.7256 103.253 47.7256 105.343C47.7256 106.828 46.9555 107.901 45.6078 108.382L47.8906 111.614ZM43.6688 107.516C45.429 107.516 46.3504 106.718 46.3504 105.343C46.3504 103.968 45.429 103.184 43.6688 103.184H41.331V107.516H43.6688ZM50.2224 111.614V101.988H51.5976V111.614H50.2224ZM59.0589 111.724C56.1435 111.724 53.9708 109.647 53.9708 106.801C53.9708 103.954 56.1435 101.878 59.0727 101.878C60.5579 101.878 61.8506 102.387 62.7307 103.377L61.8368 104.243C61.0942 103.459 60.1866 103.102 59.1277 103.102C56.9549 103.102 55.3459 104.669 55.3459 106.801C55.3459 108.932 56.9549 110.5 59.1277 110.5C60.1866 110.5 61.0942 110.129 61.8368 109.345L62.7307 110.211C61.8506 111.201 60.5579 111.724 59.0589 111.724ZM69.1117 111.724C66.155 111.724 63.9822 109.62 63.9822 106.801C63.9822 103.982 66.155 101.878 69.1117 101.878C72.0408 101.878 74.2136 103.968 74.2136 106.801C74.2136 109.634 72.0408 111.724 69.1117 111.724ZM69.1117 110.5C71.2432 110.5 72.8384 108.932 72.8384 106.801C72.8384 104.669 71.2432 103.102 69.1117 103.102C66.9526 103.102 65.3574 104.669 65.3574 106.801C65.3574 108.932 66.9526 110.5 69.1117 110.5ZM79.3959 111.724C77.9245 111.724 76.4805 111.229 75.7104 110.514L76.2192 109.441C76.9343 110.088 78.1582 110.555 79.3959 110.555C81.0599 110.555 81.775 109.909 81.775 109.07C81.775 106.718 75.9442 108.204 75.9442 104.628C75.9442 103.143 77.0993 101.878 79.6297 101.878C80.7573 101.878 81.9262 102.18 82.7239 102.73L82.27 103.83C81.4312 103.294 80.4823 103.047 79.6297 103.047C77.9932 103.047 77.2919 103.734 77.2919 104.573C77.2919 106.925 83.1227 105.453 83.1227 108.987C83.1227 110.459 81.94 111.724 79.3959 111.724Z" fill="#E3DFDE"/>
</svg>
