<svg width="22" height="22" viewBox="0 0 22 22" fill="none" xmlns="http://www.w3.org/2000/svg">
<path d="M11 0C17.0751 0 22 4.92487 22 11C22 17.0751 17.0751 22 11 22C8.93567 22 7.00418 21.4314 5.35357 20.4422L0.778713 21.7776C0.533815 21.8491 0.306255 21.6225 0.376687 21.3773L1.6789 16.8437C0.615149 15.1506 0 13.1472 0 11C0 4.92487 4.92487 0 11 0ZM7.89724 5.92038C7.45872 5.71128 6.89073 5.73908 6.57877 6.09874C5.04707 7.86465 5.23695 10.5379 7.00286 12.0696L10.3412 14.9651C12.2606 16.63 15.1663 16.4236 16.8312 14.5042C17.0583 14.2424 17.0533 13.8582 16.834 13.6029C16.7899 13.5515 16.7314 13.5153 16.6708 13.485L14.9669 12.633C14.3043 12.3016 13.5012 12.4623 13.017 13.023L12.8886 13.1718C12.4617 13.6297 11.7444 13.6548 11.2865 13.2279L8.90636 11.0088C8.44847 10.5819 8.42335 9.86468 8.85026 9.40679C9.23242 9.03856 9.33308 8.46569 9.09934 7.98924L8.31652 6.39359C8.22106 6.199 8.09288 6.01367 7.89724 5.92038Z" fill="white" fill-opacity="0.46"/>
</svg>
