<svg width="30" height="30" viewBox="0 0 30 30" fill="none" xmlns="http://www.w3.org/2000/svg">
<path d="M15 0C23.2843 0 30 6.71573 30 15C30 23.2843 23.2843 30 15 30C12.185 30 9.55115 29.2246 7.30033 27.8757L1.06188 29.6967C0.727929 29.7942 0.41762 29.4852 0.513664 29.1509L2.28941 22.9687C0.83884 20.6599 0 17.928 0 15C0 6.71573 6.71573 0 15 0ZM10.769 8.07325C10.171 7.78811 9.39645 7.82601 8.97106 8.31646C6.88237 10.7245 7.14129 14.3699 9.54935 16.4585L14.1016 20.407C16.719 22.6773 20.6814 22.3959 22.9517 19.7784C23.2613 19.4214 23.2545 18.8976 22.9555 18.5495C22.8953 18.4794 22.8156 18.43 22.7329 18.3887L20.4095 17.2268C19.5058 16.7749 18.4108 16.994 17.7505 17.7587L17.5753 17.9616C16.9932 18.586 16.0151 18.6202 15.3907 18.0381L12.145 15.0121C11.5206 14.4299 11.4864 13.4518 12.0685 12.8274C12.5897 12.3253 12.7269 11.5441 12.4082 10.8944L11.3407 8.71854C11.2105 8.45319 11.0357 8.20046 10.769 8.07325Z" fill="black"/>
</svg>
